<svg width="24" height="24" viewBox="0 0 24 24" fill="none" xmlns="http://www.w3.org/2000/svg">
<g clip-path="url(#clip0_204_4463)">
<path fill-rule="evenodd" clip-rule="evenodd" d="M8.82599 0.060248C6.82089 0.477363 5.26604 1.97013 4.76839 3.95588C4.61083 4.58455 4.61191 5.73516 4.77064 6.36286C5.41132 8.89659 7.77105 10.5774 10.3279 10.3213C11.7894 10.1749 13.0389 9.51173 13.9234 8.41287C15.7966 6.08577 15.3229 2.6593 12.8879 0.922462C12.4766 0.629138 11.7034 0.267635 11.1988 0.13265C10.6835 -0.0051329 9.33767 -0.0461931 8.82599 0.060248ZM10.7967 1.3643C12.616 1.79938 13.8837 3.4972 13.7749 5.353C13.7383 5.97801 13.642 6.34943 13.3775 6.88571C12.9886 7.67425 12.3899 8.2614 11.5646 8.66341C10.9613 8.95729 10.5209 9.05915 9.84976 9.06007C9.18973 9.06098 8.76011 8.96105 8.13495 8.66127C7.3166 8.26883 6.71299 7.66275 6.31152 6.8306C6.01616 6.21831 5.93641 5.86144 5.93641 5.15156C5.93641 4.42026 6.01775 4.07184 6.34023 3.42164C6.80738 2.47975 7.58651 1.79994 8.59472 1.45451C9.30711 1.21044 10.0295 1.18088 10.7967 1.3643ZM8.51517 11.0015C6.08593 11.3932 4.0278 12.654 2.59621 14.6273C2.208 15.1624 1.62066 16.3186 1.40685 16.9685C1.08001 17.9621 0.865738 19.5473 1.00349 19.9528C1.12567 20.3125 1.52899 20.4807 1.87661 20.3167C2.14202 20.1916 2.21035 20.0017 2.27183 19.2188C2.38767 17.7435 2.87852 16.4226 3.75614 15.2244C4.14092 14.699 5.01722 13.8776 5.61587 13.4811C6.91707 12.6193 8.03426 12.2639 9.60016 12.2139C10.6182 12.1814 11.1535 12.2454 12.0876 12.5116C12.5426 12.6412 12.6434 12.6546 12.7936 12.6053C13.2017 12.4715 13.3575 11.9973 13.1124 11.6357C12.9751 11.4332 12.6095 11.2936 11.6925 11.094C11.1911 10.9848 10.9445 10.9632 10.0289 10.9483C9.27819 10.9361 8.82164 10.9521 8.51517 11.0015ZM16.6322 11.853C15.8504 11.9083 15.7706 11.9526 15.2684 12.61C14.6886 13.3688 14.4867 13.4844 13.501 13.6225C13.0191 13.69 12.756 13.7509 12.6671 13.8156C12.3035 14.0802 11.5299 15.3736 11.3754 15.975C11.315 16.2102 11.3199 16.2307 11.5986 16.9163C11.98 17.8548 11.9794 18.0106 11.5909 18.9544C11.3197 19.613 11.3148 19.6338 11.3748 19.8693C11.5256 20.4608 12.3084 21.7683 12.6691 22.0308C12.7613 22.0979 13.0098 22.1548 13.496 22.22C14.4725 22.3509 14.6864 22.4733 15.2664 23.2324C15.712 23.8156 15.7804 23.8661 16.2425 23.9516C16.6324 24.0237 17.8518 24.0131 18.2308 23.9341C18.6098 23.8551 18.6575 23.8161 19.1501 23.1816C19.6939 22.4812 19.9286 22.3498 20.8606 22.2246C21.2443 22.173 21.6037 22.1067 21.6591 22.0772C22.0015 21.8951 22.8306 20.545 23.0103 19.8769C23.0706 19.6527 23.0646 19.6277 22.7828 18.9343C22.3961 17.9828 22.3943 17.8426 22.7568 16.9755C23.0705 16.2253 23.0806 16.0805 22.8564 15.5482C22.5899 14.9155 21.9635 13.9682 21.6968 13.7946C21.6277 13.7495 21.2646 13.6723 20.8606 13.6168C19.9149 13.4869 19.717 13.3755 19.1404 12.6483C18.9152 12.3642 18.6726 12.0888 18.6013 12.0363C18.3765 11.8705 17.5163 11.7905 16.6322 11.853ZM17.7123 13.1138C17.8528 13.1142 17.9165 13.173 18.267 13.6254C18.4848 13.9065 18.7014 14.1587 18.7482 14.1858C18.795 14.2129 19.0278 14.3497 19.2655 14.4898C19.6788 14.7334 19.726 14.7483 20.3485 14.831L20.9994 14.9175L21.2072 15.2243C21.3216 15.3931 21.4823 15.6645 21.5644 15.8276L21.7136 16.1241L21.4636 16.7261L21.2136 17.3282V17.9208V18.5134L21.4628 19.1119L21.712 19.7105L21.5314 20.073C21.432 20.2724 21.2671 20.5455 21.1648 20.6799L20.979 20.9244L20.3281 21.0126C19.686 21.0996 19.6702 21.1049 19.1784 21.3994C18.7303 21.6677 18.6396 21.749 18.2836 22.2016L17.8874 22.7052L17.5669 22.7349C17.3907 22.7513 17.0803 22.7538 16.8772 22.7404L16.5078 22.7162L16.0935 22.1886C15.8021 21.8177 15.6155 21.629 15.4647 21.5528C15.3467 21.4932 15.1271 21.3664 14.9766 21.2711C14.7357 21.1183 14.6245 21.0869 14.042 21.0075C13.3061 20.907 13.3642 20.9425 13.0301 20.3901C12.6407 19.7463 12.6437 19.7844 12.9281 19.0964C13.1756 18.4975 13.177 18.4907 13.177 17.9174C13.177 17.343 13.176 17.3382 12.9253 16.7319L12.6735 16.1231L12.8649 15.7445C12.9701 15.5363 13.1302 15.266 13.2206 15.1438L13.3849 14.9217L14.023 14.8344C14.6387 14.7501 14.6792 14.7368 15.1804 14.4537C15.6705 14.1768 15.7225 14.1309 16.1039 13.6398L16.508 13.1195L16.7749 13.0982C16.9216 13.0864 17.1569 13.085 17.2977 13.0951C17.4384 13.1052 17.625 13.1136 17.7123 13.1138ZM16.5428 15.5099C15.9021 15.6601 15.241 16.2131 14.9339 16.8559C14.7694 17.2002 14.745 17.3031 14.7237 17.7433C14.6956 18.324 14.7603 18.6603 14.9807 19.0776C15.192 19.4779 15.4481 19.761 15.8078 19.9921C17.1424 20.8494 18.9616 20.2807 19.5273 18.8293C19.6991 18.3886 19.7241 17.6593 19.5832 17.1981C19.2524 16.1159 18.326 15.4466 17.1771 15.4599C16.9337 15.4627 16.6483 15.4852 16.5428 15.5099ZM17.6486 16.7967C17.9063 16.9038 18.1706 17.1603 18.2957 17.4246C18.3863 17.6164 18.4047 17.731 18.3891 18.007C18.3661 18.4107 18.2049 18.6851 17.8421 18.9386C17.6394 19.0802 17.5871 19.0927 17.1953 19.0927C16.8034 19.0927 16.7512 19.0802 16.5485 18.9386C16.1945 18.6914 16.0264 18.4114 16.0019 18.0282C15.9904 17.8496 16.0073 17.6245 16.0394 17.5278C16.1215 17.2808 16.4119 16.9612 16.6696 16.8344C16.9267 16.7079 17.3915 16.69 17.6486 16.7967Z" fill="white"/>
</g>
<defs>
<clipPath id="clip0_204_4463">
<rect width="24" height="24" fill="white" transform="translate(0.000976562)"/>
</clipPath>
</defs>
</svg>
