<svg width="15" height="15" viewBox="0 0 15 15" fill="none" xmlns="http://www.w3.org/2000/svg">
<path d="M8.1542 7.14678L7.80068 7.50033L8.1542 7.85387L12.4374 12.1373L12.4375 12.1374C12.5208 12.2207 12.5208 12.3545 12.4375 12.4378L12.4374 12.4379C12.3957 12.4795 12.3421 12.5002 12.2871 12.5002C12.2321 12.5002 12.1784 12.4795 12.1368 12.4379L7.85349 8.1545L7.49993 7.80093L7.14637 8.1545L2.8632 12.4379C2.82156 12.4795 2.76786 12.5002 2.71291 12.5002C2.65781 12.5002 2.60413 12.4794 2.56278 12.4381L2.56253 12.4378C2.47916 12.3545 2.47916 12.2207 2.56253 12.1374L2.56262 12.1373L6.8458 7.85387L7.19932 7.50033L6.8458 7.14678L2.56262 2.86338L2.56253 2.86329C2.47916 2.77996 2.47916 2.64618 2.56253 2.56284L2.56261 2.56276C2.64589 2.47948 2.77964 2.47933 2.86319 2.56275C2.86322 2.56278 2.86325 2.56281 2.86328 2.56284L7.14637 6.84615L7.49993 7.19972L7.85349 6.84616L12.1368 2.56276L11.7832 2.20921L12.1368 2.56276C12.2201 2.47941 12.354 2.47941 12.4374 2.56276L12.4375 2.56284C12.5208 2.64618 12.5208 2.77996 12.4375 2.86329L12.4374 2.86338L8.1542 7.14678Z" fill="black" stroke="black"/>
</svg>
