<svg width="28" height="28" viewBox="0 0 28 28" fill="none" xmlns="http://www.w3.org/2000/svg">
<path d="M2 4C2 2.89543 2.89543 2 4 2H9C10.1046 2 11 2.89543 11 4V9C11 10.1046 10.1046 11 9 11H4C2.89543 11 2 10.1046 2 9V4Z" fill="white"/>
<path fill-rule="evenodd" clip-rule="evenodd" d="M4 0H9C11.2091 0 13 1.79086 13 4V9C13 11.2091 11.2091 13 9 13H4C1.79086 13 0 11.2091 0 9V4C0 1.79086 1.79086 0 4 0ZM4 2C2.89543 2 2 2.89543 2 4V9C2 10.1046 2.89543 11 4 11H9C10.1046 11 11 10.1046 11 9V4C11 2.89543 10.1046 2 9 2H4Z" fill="white"/>
<path d="M2 19C2 17.8954 2.89543 17 4 17H9C10.1046 17 11 17.8954 11 19V24C11 25.1046 10.1046 26 9 26H4C2.89543 26 2 25.1046 2 24V19Z" fill="white"/>
<path fill-rule="evenodd" clip-rule="evenodd" d="M4 15H9C11.2091 15 13 16.7909 13 19V24C13 26.2091 11.2091 28 9 28H4C1.79086 28 0 26.2091 0 24V19C0 16.7909 1.79086 15 4 15ZM4 17C2.89543 17 2 17.8954 2 19V24C2 25.1046 2.89543 26 4 26H9C10.1046 26 11 25.1046 11 24V19C11 17.8954 10.1046 17 9 17H4Z" fill="white"/>
<path d="M17 4C17 2.89543 17.8954 2 19 2H24C25.1046 2 26 2.89543 26 4V9C26 10.1046 25.1046 11 24 11H19C17.8954 11 17 10.1046 17 9V4Z" fill="white"/>
<path fill-rule="evenodd" clip-rule="evenodd" d="M19 0H24C26.2091 0 28 1.79086 28 4V9C28 11.2091 26.2091 13 24 13H19C16.7909 13 15 11.2091 15 9V4C15 1.79086 16.7909 0 19 0ZM19 2C17.8954 2 17 2.89543 17 4V9C17 10.1046 17.8954 11 19 11H24C25.1046 11 26 10.1046 26 9V4C26 2.89543 25.1046 2 24 2H19Z" fill="white"/>
<path d="M17 19C17 17.8954 17.8954 17 19 17H24C25.1046 17 26 17.8954 26 19V24C26 25.1046 25.1046 26 24 26H19C17.8954 26 17 25.1046 17 24V19Z" fill="white"/>
<path fill-rule="evenodd" clip-rule="evenodd" d="M19 15H24C26.2091 15 28 16.7909 28 19V24C28 26.2091 26.2091 28 24 28H19C16.7909 28 15 26.2091 15 24V19C15 16.7909 16.7909 15 19 15ZM19 17C17.8954 17 17 17.8954 17 19V24C17 25.1046 17.8954 26 19 26H24C25.1046 26 26 25.1046 26 24V19C26 17.8954 25.1046 17 24 17H19Z" fill="white"/>
</svg>
