<svg width="30" height="30" viewBox="0 0 30 30" fill="none" xmlns="http://www.w3.org/2000/svg">
<g clip-path="url(#clip0_276_463)">
<path fill-rule="evenodd" clip-rule="evenodd" d="M13.0374 0.0450423C12.5291 0.196684 11.9796 0.764989 11.8401 1.28329C11.8055 1.4117 11.6994 1.97044 11.6041 2.52495C11.5089 3.07941 11.4205 3.5618 11.4077 3.59689C11.3949 3.63198 11.1839 3.73186 10.9388 3.81889C10.6937 3.90592 10.2464 4.09178 9.94464 4.23186L9.39605 4.48655L8.55137 3.87382C7.35908 3.00898 7.23489 2.94936 6.62135 2.94766C5.84924 2.94549 5.70005 3.03968 4.32977 4.39406C3.01212 5.69646 2.91069 5.84804 2.87625 6.56605C2.84527 7.21147 2.94354 7.44011 3.71624 8.52132C4.08531 9.03774 4.38838 9.49402 4.38967 9.53533C4.39096 9.57659 4.31628 9.76145 4.2237 9.94613C4.13113 10.1308 3.9546 10.5592 3.8314 10.8981C3.7082 11.237 3.60495 11.5195 3.60196 11.5258C3.59896 11.5321 3.12206 11.6178 2.54226 11.7161C1.9624 11.8144 1.39093 11.9221 1.2723 11.9555C0.751462 12.1021 0.189436 12.6713 0.0484014 13.1952C0.0084494 13.3438 -0.00780126 14.07 0.0035214 15.2L0.0213561 16.9719L0.194188 17.2841C0.570534 17.9636 0.960081 18.1546 2.51093 18.42L3.65124 18.6151L3.89552 19.2607C4.02987 19.6157 4.22077 20.0662 4.31974 20.2617L4.49967 20.6172L3.85059 21.5234C3.0394 22.6561 2.95874 22.8251 2.95645 23.3979C2.9534 24.1648 3.01312 24.2589 4.378 25.6376C5.81193 27.086 5.96094 27.1802 6.75892 27.1431C7.35738 27.1153 7.44521 27.0725 8.60035 26.2463L9.52001 25.5885L10.0506 25.833C10.3425 25.9675 10.7819 26.1493 11.0271 26.2369L11.4728 26.3963L11.6603 27.5233C11.9148 29.0532 12.1091 29.4487 12.792 29.8271L13.104 30H15.0107H16.9173L17.2294 29.8271C17.9066 29.4518 18.0971 29.0629 18.3578 27.5229L18.5486 26.3955L19.0483 26.2146C19.3233 26.1151 19.7775 25.9271 20.0577 25.7969L20.5673 25.56L21.441 26.1862C21.9215 26.5306 22.4148 26.8639 22.5371 26.9268C23.0458 27.1886 23.7219 27.1834 24.2493 26.9137C24.5164 26.7771 26.6197 24.7189 26.8388 24.3796C27.0408 24.0668 27.1747 23.5028 27.1259 23.1698C27.0639 22.7463 26.9077 22.4518 26.255 21.5284C25.9209 21.0558 25.6305 20.6389 25.6096 20.6021C25.5887 20.5652 25.686 20.2879 25.8259 19.9859C25.9658 19.6838 26.1376 19.2651 26.2077 19.0553C26.2778 18.8455 26.3553 18.6421 26.3799 18.6033C26.4046 18.5646 26.9255 18.4499 27.5377 18.3486C29.0589 18.0967 29.4512 17.9042 29.8272 17.2254L30 16.9133V15.006V13.0987L29.8272 12.7866C29.4522 12.1096 29.0627 11.9184 27.5255 11.6569L26.4003 11.4655L26.2446 11.0204C26.159 10.7756 25.9811 10.3388 25.8493 10.0498C25.7176 9.76086 25.6098 9.49672 25.6098 9.46286C25.6098 9.429 25.8782 9.02724 26.2062 8.57003C27.0284 7.4242 27.1202 7.23119 27.123 6.6434C27.1268 5.87034 27.0102 5.68607 25.6709 4.34929C25.0365 3.71608 24.44 3.17219 24.3062 3.10476C23.7766 2.83798 23.0452 2.82354 22.5641 3.07037C22.4592 3.12418 21.9681 3.45828 21.4729 3.81279L20.5725 4.45744L20.0062 4.1909C19.6948 4.0443 19.2259 3.85058 18.9643 3.7605L18.4887 3.5966L18.2987 2.47918C18.0388 0.950375 17.8466 0.559416 17.1707 0.184888L16.8587 0.0120027L15.04 0.00108727C14.0397 -0.00495728 13.1386 0.0148195 13.0374 0.0450423ZM16.3424 1.73106C16.3815 1.75594 16.5166 2.39502 16.6465 3.16937C16.8894 4.61742 16.9735 4.87399 17.2527 5.01806C17.3264 5.05609 17.7167 5.1947 18.12 5.3261C18.5233 5.45749 19.1842 5.73056 19.5884 5.9329C20.3991 6.33859 20.6015 6.39974 20.8746 6.3214C20.9759 6.29235 21.5525 5.915 22.156 5.48285C22.7595 5.05063 23.2893 4.67605 23.3332 4.6504C23.3894 4.61754 23.7059 4.89629 24.4038 5.59359C24.9488 6.138 25.3947 6.60543 25.3947 6.63231C25.3947 6.65919 25.0422 7.17444 24.6115 7.77731C24.1807 8.38018 23.7979 8.93111 23.7608 9.00159C23.6088 9.29038 23.678 9.59801 24.0743 10.3955C24.2838 10.8171 24.5618 11.4889 24.6921 11.8882C24.8224 12.2877 24.9545 12.6621 24.9857 12.7205C25.1307 12.9915 25.3594 13.0672 26.7456 13.3031C27.4929 13.4304 28.1547 13.5504 28.2162 13.57C28.322 13.6035 28.328 13.6795 28.328 14.9734C28.328 16.022 28.3102 16.3561 28.252 16.4045C28.2102 16.4392 27.5478 16.573 26.78 16.7019C25.9823 16.8357 25.3237 16.9756 25.2435 17.0282C25.0288 17.1689 24.9508 17.3221 24.6893 18.1167C24.5565 18.5199 24.288 19.1668 24.0926 19.5541C23.671 20.3898 23.6157 20.5831 23.7154 20.8724C23.7556 20.989 24.1498 21.5932 24.5915 22.215C25.0333 22.8368 25.3947 23.3637 25.3947 23.3858C25.3947 23.4404 23.4419 25.3932 23.3873 25.3932C23.3635 25.3932 22.8857 25.0648 22.3256 24.6634C21.7656 24.262 21.2094 23.8758 21.0897 23.8051C20.7256 23.5902 20.4754 23.6349 19.6117 24.0691C19.1933 24.2794 18.5301 24.5557 18.1379 24.6832C17.7457 24.8107 17.3719 24.9432 17.3072 24.9779C17.0221 25.1305 16.9513 25.3433 16.7067 26.7821C16.5761 27.5501 16.4415 28.212 16.4075 28.253C16.3173 28.3617 13.7029 28.3603 13.6127 28.2514C13.5779 28.2096 13.4442 27.547 13.3153 26.779C13.1816 25.9811 13.0417 25.3223 12.9891 25.242C12.8485 25.0273 12.6953 24.9492 11.901 24.6876C11.4978 24.5548 10.8578 24.2907 10.4787 24.1008C10.0996 23.9108 9.69977 23.7386 9.59006 23.718C9.29684 23.663 9.01084 23.8126 7.93701 24.5831C7.41845 24.9551 6.92149 25.3071 6.83267 25.3654L6.67122 25.4712L5.67829 24.4792C5.13216 23.9336 4.68535 23.4653 4.68535 23.4384C4.68535 23.4115 5.03782 22.8962 5.46855 22.2934C5.89934 21.6905 6.28214 21.1396 6.31922 21.0691C6.46718 20.788 6.40041 20.4925 6.01357 19.7161C5.62977 18.9458 5.4093 18.4005 5.24063 17.8042C5.11773 17.3698 4.88118 17.096 4.55417 17.0096C4.4166 16.9732 3.74974 16.8486 3.0722 16.7328C2.39471 16.617 1.80734 16.4947 1.76686 16.4611C1.66132 16.3735 1.66115 13.7553 1.76669 13.6702C1.80705 13.6376 2.42082 13.5148 3.13069 13.3972C3.84055 13.2795 4.5063 13.1559 4.61008 13.1225C4.90922 13.026 5.06639 12.7772 5.29971 12.0309C5.4188 11.6499 5.69888 10.9583 5.9221 10.494C6.3499 9.60423 6.39859 9.38551 6.23802 9.07495C6.18851 8.97924 5.81492 8.43258 5.40783 7.86017C5.00069 7.28776 4.65461 6.77069 4.63877 6.71106C4.61753 6.63096 4.86082 6.35144 5.57104 5.64006C6.09957 5.11061 6.55975 4.67745 6.59372 4.67745C6.62763 4.67745 7.13815 5.02117 7.72827 5.44124C8.31834 5.86131 8.87697 6.24422 8.96966 6.29217C9.2891 6.45737 9.51543 6.40402 10.4549 5.94206C10.9439 5.70157 11.6369 5.41019 11.9949 5.29459C12.6654 5.07798 12.8895 4.92792 13.0044 4.61877C13.0344 4.53808 13.1592 3.87787 13.2819 3.15165C13.4045 2.42542 13.5301 1.79825 13.561 1.75788C13.603 1.70295 13.9507 1.68476 14.9445 1.6854C15.6747 1.68593 16.3037 1.70647 16.3424 1.73106ZM13.9803 8.57936C13.3783 8.68581 12.6168 8.92566 12.1653 9.15089C11.1881 9.63844 10.1823 10.5219 9.5951 11.4081C7.92774 13.925 8.21515 17.268 10.2875 19.461C12.7588 22.0762 16.8563 22.1966 19.4643 19.7306C22.1358 17.2046 22.2013 12.9986 19.6094 10.4059C18.7372 9.5334 17.7269 8.97272 16.4773 8.66756C15.8192 8.50688 14.628 8.46474 13.9803 8.57936ZM16.2913 10.4249C19.4238 11.3282 20.7467 14.9647 18.9308 17.6807C18.2403 18.7134 17.014 19.4965 15.7733 19.697C13.5065 20.0632 11.287 18.7316 10.5243 16.5477C9.58994 13.8727 11.2355 10.9722 14.0427 10.3462C14.6124 10.2191 15.7109 10.2576 16.2913 10.4249Z" fill="#333232"/>
</g>
<defs>
<clipPath id="clip0_276_463">
<rect width="30" height="30" fill="white"/>
</clipPath>
</defs>
</svg>
