<svg width="21" height="21" viewBox="0 0 21 21" fill="none" xmlns="http://www.w3.org/2000/svg">
<path d="M19.5 17.5C19.5 18.6046 18.6046 19.5 17.5 19.5L3.5 19.5C2.39543 19.5 1.5 18.6046 1.5 17.5L1.5 3.5C1.5 2.39543 2.39543 1.5 3.5 1.5L17.5 1.5C18.6046 1.5 19.5 2.39543 19.5 3.5L19.5 17.5Z" fill="#4B47F8"/>
<path fill-rule="evenodd" clip-rule="evenodd" d="M17.5 21L3.5 21C1.567 21 1.36992e-07 19.433 3.0598e-07 17.5L1.5299e-06 3.5C1.69889e-06 1.567 1.56701 -1.69889e-06 3.5 -1.5299e-06L17.5 -3.0598e-07C19.433 -1.36992e-07 21 1.567 21 3.5L21 17.5C21 19.433 19.433 21 17.5 21ZM17.5 19.5C18.6046 19.5 19.5 18.6046 19.5 17.5L19.5 3.5C19.5 2.39543 18.6046 1.5 17.5 1.5L3.5 1.5C2.39543 1.5 1.5 2.39543 1.5 3.5L1.5 17.5C1.5 18.6046 2.39543 19.5 3.5 19.5L17.5 19.5Z" fill="#4B47F8"/>
<path fill-rule="evenodd" clip-rule="evenodd" d="M15.6364 12.9513C15.2849 13.2832 14.7151 13.2832 14.3636 12.9513L10.5 9.30356L6.6364 12.9513C6.28493 13.2832 5.71508 13.2832 5.36361 12.9513C5.01213 12.6195 5.01213 12.0815 5.36361 11.7496L10.5 6.90019L15.6364 11.7496C15.9879 12.0815 15.9879 12.6195 15.6364 12.9513Z" fill="white"/>
</svg>
