<svg width="24" height="24" viewBox="0 0 24 24" fill="none" xmlns="http://www.w3.org/2000/svg">
<path fill-rule="evenodd" clip-rule="evenodd" d="M2.36266 1.344V22.656H21.6393V1.344H2.36266ZM1.97361 0C1.43644 0 1.00098 0.429807 1.00098 0.96V23.04C1.00098 23.5702 1.43644 24 1.97361 24H22.0283C22.5655 24 23.001 23.5702 23.001 23.04V0.96C23.001 0.429807 22.5655 0 22.0283 0H1.97361Z" fill="white"/>
<path fill-rule="evenodd" clip-rule="evenodd" d="M8.30078 18.9998C8.30078 18.6132 8.61418 18.2998 9.00078 18.2998H18.0008C18.3874 18.2998 18.7008 18.6132 18.7008 18.9998C18.7008 19.3864 18.3874 19.6998 18.0008 19.6998H9.00078C8.61418 19.6998 8.30078 19.3864 8.30078 18.9998Z" fill="white"/>
<path fill-rule="evenodd" clip-rule="evenodd" d="M8.30078 15.7C8.30078 15.3134 8.61418 15 9.00078 15H18.0008C18.3874 15 18.7008 15.3134 18.7008 15.7C18.7008 16.0866 18.3874 16.4 18.0008 16.4H9.00078C8.61418 16.4 8.30078 16.0866 8.30078 15.7Z" fill="white"/>
<path fill-rule="evenodd" clip-rule="evenodd" d="M9.40098 6.4V10.6H17.601V6.4H9.40098ZM9.00098 5C8.44869 5 8.00098 5.44772 8.00098 6V11C8.00098 11.5523 8.44869 12 9.00098 12H18.001C18.5533 12 19.001 11.5523 19.001 11V6C19.001 5.44772 18.5533 5 18.001 5H9.00098Z" fill="white"/>
<path fill-rule="evenodd" clip-rule="evenodd" d="M4.30103 23V1H5.70103V23H4.30103Z" fill="white"/>
</svg>
