<svg width="15" height="15" viewBox="0 0 15 15" fill="none" xmlns="http://www.w3.org/2000/svg">
<path fill-rule="evenodd" clip-rule="evenodd" d="M7.16637 0.792147C7.03406 0.849027 3.3236 4.55353 3.24163 4.71062C3.15679 4.87322 3.16102 5.10699 3.25202 5.28393C3.351 5.47639 3.51355 5.58435 3.72764 5.59984C4.0436 5.62271 3.99116 5.6651 5.45568 4.20356L6.79726 2.86467V6.70334C6.79726 10.9062 6.78869 10.6887 6.96163 10.871C7.08574 11.0018 7.22841 11.0606 7.42191 11.0606C7.7055 11.0606 7.9368 10.895 8.01417 10.6366C8.03773 10.5578 8.04657 9.48544 8.04657 6.69652V2.86467L9.38815 4.20356C10.8527 5.6651 10.8002 5.62271 11.1162 5.59984C11.3301 5.58435 11.4929 5.47636 11.5916 5.28427C11.6812 5.11002 11.685 4.8706 11.6007 4.70832C11.5155 4.5443 7.80707 0.847265 7.67126 0.790982C7.5383 0.735864 7.29607 0.736433 7.16637 0.792147ZM1.10441 9.89274C1.04195 9.92166 0.956371 9.98212 0.914264 10.0271C0.746261 10.2063 0.749441 10.1685 0.750123 11.9759C0.750719 13.527 0.754069 13.639 0.803332 13.7454C0.867756 13.8847 0.984821 13.998 1.1248 14.0565C1.21915 14.0959 1.88824 14.1005 7.4281 14.1C13.4001 14.0994 13.63 14.0974 13.7394 14.0467C13.8786 13.9822 13.9918 13.8651 14.0502 13.725C14.1166 13.5661 14.1166 10.3733 14.0502 10.2144C13.8666 9.77441 13.2404 9.70824 12.9689 10.1002L12.8876 10.2175L12.8797 11.5482L12.8718 12.8789H7.42191H1.97203L1.96413 11.5482L1.95621 10.2175L1.87492 10.1002C1.7139 9.86771 1.36257 9.77313 1.10441 9.89274Z" fill="white"/>
</svg>
