<svg width="30" height="30" viewBox="0 0 30 30" fill="none" xmlns="http://www.w3.org/2000/svg">
<path fill-rule="evenodd" clip-rule="evenodd" d="M14.0988 0.144066C12.8431 0.617437 12.1337 2.00568 12.4927 3.28689C12.6627 3.89342 12.679 3.83525 12.3063 3.95277C11.2626 4.28196 10.1033 5.02471 9.19336 5.94714C7.96021 7.19717 7.19516 8.67195 6.88169 10.4031C6.76403 11.0531 6.7486 12.0204 6.7999 15.5294C6.82537 17.2711 6.81722 17.5349 6.72781 17.8728C6.58289 18.4206 6.17983 19.2135 5.14971 20.9778C3.966 23.0052 3.89894 23.1507 3.90004 23.6895C3.90165 24.5132 4.28444 25.1456 4.9967 25.5014L5.38214 25.694L7.62502 25.7124C9.29346 25.726 9.87246 25.7486 9.88569 25.8002C10.2051 27.0471 10.6366 27.811 11.4666 28.5986C12.4677 29.5486 13.6065 30 15.0022 30C16.3979 30 17.5367 29.5486 18.5378 28.5986C19.3677 27.8111 19.7995 27.0468 20.1187 25.8003C20.1319 25.7487 20.7056 25.7258 22.3491 25.7112C24.5234 25.692 24.5677 25.6893 24.9065 25.552C25.6181 25.2637 26.0937 24.552 26.0995 23.7671C26.1041 23.123 26.1084 23.1325 24.8528 20.9778C23.823 19.2105 23.4212 18.4191 23.2764 17.8728C23.1867 17.5345 23.1787 17.2729 23.2043 15.5294C23.2559 12.0248 23.2404 11.0534 23.1227 10.4031C22.8093 8.67224 22.0445 7.19782 20.811 5.94678C19.8895 5.01205 18.7725 4.29702 17.6981 3.95406C17.3254 3.83513 17.3417 3.8933 17.5117 3.28689C17.8732 1.99695 17.1566 0.607946 15.8888 0.141195C15.3745 -0.0481531 14.6054 -0.0469228 14.0988 0.144066ZM15.394 2.029C15.8616 2.36118 15.7447 3.10416 15.1959 3.28788C14.4732 3.52978 13.9827 2.47495 14.6104 2.029C14.7762 1.91112 15.2282 1.91112 15.394 2.029ZM16.3018 5.56779C17.4374 5.79739 18.4463 6.33808 19.3338 7.19266C20.2134 8.03969 20.7742 8.96757 21.0957 10.1077C21.3565 11.033 21.3816 11.5402 21.31 14.4435C21.2426 17.1738 21.262 17.7238 21.4523 18.4879C21.5895 19.0386 22.1888 20.223 23.259 22.0584C23.7464 22.8945 24.1575 23.6261 24.1725 23.6842C24.1987 23.7858 23.8398 23.7899 15.0022 23.7899C6.16463 23.7899 5.8057 23.7858 5.83193 23.6842C5.84689 23.6261 6.25798 22.8945 6.74543 22.0584C7.23288 21.2224 7.81581 20.1694 8.04084 19.7182C8.7393 18.3179 8.78874 17.9395 8.69892 14.6799C8.62966 12.1652 8.64982 11.2274 8.78724 10.5789C9.0701 9.24357 9.66614 8.16477 10.646 7.21463C12.1894 5.71807 14.1792 5.13871 16.3018 5.56779ZM18.1165 25.8827C17.742 26.8817 16.8431 27.7077 15.8344 27.9796C15.3971 28.0975 14.6073 28.0975 14.17 27.9796C13.1613 27.7077 12.2624 26.8817 11.8879 25.8827L11.8282 25.7233H15.0022H18.1762L18.1165 25.8827Z" fill="#333232"/>
</svg>
