<svg width="24" height="24" viewBox="0 0 24 24" fill="none" xmlns="http://www.w3.org/2000/svg">
<g clip-path="url(#clip0_204_3986)">
<path fill-rule="evenodd" clip-rule="evenodd" d="M21.1208 3.1895H2.88082C2.5627 3.1895 2.30482 3.43306 2.30482 3.7335V16.4268C2.30482 16.7273 2.5627 16.9708 2.88081 16.9708H21.1208C21.4389 16.9708 21.6968 16.7273 21.6968 16.4268V3.7335C21.6968 3.43306 21.4389 3.1895 21.1208 3.1895ZM2.88082 1.92017C1.82043 1.92017 0.960815 2.73202 0.960815 3.7335V16.4268C0.960815 17.4283 1.82043 18.2402 2.88081 18.2402H21.1208C22.1812 18.2402 23.0408 17.4283 23.0408 16.4268V3.7335C23.0408 2.73202 22.1812 1.92017 21.1208 1.92017H2.88082Z" fill="white"/>
<path fill-rule="evenodd" clip-rule="evenodd" d="M12.0006 17.5679C12.3718 17.5679 12.6726 17.8687 12.6726 18.2399V21.4079H15.3606C15.7318 21.4079 16.0326 21.7087 16.0326 22.0799C16.0326 22.451 15.7318 22.7519 15.3606 22.7519H8.64063C8.26949 22.7519 7.96863 22.451 7.96863 22.0799C7.96863 21.7087 8.26949 21.4079 8.64063 21.4079H11.3286V18.2399C11.3286 17.8687 11.6295 17.5679 12.0006 17.5679Z" fill="white"/>
</g>
<defs>
<clipPath id="clip0_204_3986">
<rect width="24" height="24" fill="white" transform="translate(0.000854492 0.000244141)"/>
</clipPath>
</defs>
</svg>
