<svg width="15" height="15" viewBox="0 0 15 15" fill="none" xmlns="http://www.w3.org/2000/svg">
<path d="M8.87424 7.51192L14.7149 1.67104C15.095 1.29112 15.095 0.676832 14.7149 0.296907C14.335 -0.0830184 13.7207 -0.0830184 13.3408 0.296907L7.49992 6.13779L1.65921 0.296907C1.27911 -0.0830184 0.665003 -0.0830184 0.285077 0.296907C-0.0950258 0.676832 -0.0950258 1.29112 0.285077 1.67104L6.12578 7.51192L0.285077 13.3528C-0.0950258 13.7327 -0.0950258 14.347 0.285077 14.7269C0.474417 14.9165 0.723371 15.0117 0.972146 15.0117C1.22092 15.0117 1.4697 14.9165 1.65921 14.7269L7.49992 8.88606L13.3408 14.7269C13.5303 14.9165 13.7791 15.0117 14.0279 15.0117C14.2766 15.0117 14.5254 14.9165 14.7149 14.7269C15.095 14.347 15.095 13.7327 14.7149 13.3528L8.87424 7.51192Z" fill="#fff"/>
</svg>
